<svg width="13" height="12" viewBox="0 0 13 12" fill="none" xmlns="http://www.w3.org/2000/svg">
<path d="M6.33331 0C3.01992 0 0.333313 2.68661 0.333313 6C0.333313 9.31339 3.01992 12 6.33331 12C9.64671 12 12.3333 9.31339 12.3333 6C12.3333 2.68661 9.64671 0 6.33331 0ZM8.69715 7.8442L8.31412 8.36652C8.30579 8.37789 8.29529 8.38751 8.28323 8.39481C8.27117 8.40211 8.25779 8.40696 8.24385 8.40908C8.22991 8.41119 8.21569 8.41054 8.20201 8.40714C8.18832 8.40374 8.17545 8.39768 8.16412 8.38929L5.94894 6.77411C5.93514 6.7642 5.92392 6.75112 5.91623 6.73597C5.90854 6.72082 5.9046 6.70404 5.90474 6.68705V3C5.90474 2.94107 5.95296 2.89286 6.01188 2.89286H6.65608C6.71501 2.89286 6.76322 2.94107 6.76322 3V6.31473L8.67305 7.69554C8.72126 7.72902 8.73197 7.79598 8.69715 7.8442Z" fill="white"/>
</svg>
