<svg width="22" height="22" viewBox="0 0 22 22" fill="none" xmlns="http://www.w3.org/2000/svg">
<path d="M11.0047 0C6.41275 0 5.06979 0.00473886 4.80874 0.0264022C3.86639 0.104763 3.28001 0.253191 2.64118 0.571371C2.14886 0.815931 1.76058 1.09942 1.37739 1.4968C0.679509 2.22151 0.256553 3.11309 0.103443 4.17291C0.0290032 4.68741 0.00734792 4.79234 0.00294919 7.42038C0.00125736 8.2964 0.00294919 9.44929 0.00294919 10.9957C0.00294919 15.5856 0.00802465 16.9277 0.0300183 17.1884C0.10615 18.1057 0.249955 18.6828 0.554483 19.3141C1.13647 20.5225 2.248 21.4296 3.55747 21.7681C4.01087 21.8849 4.51165 21.9492 5.15455 21.9797C5.42693 21.9915 8.20321 22 10.9812 22C13.7592 22 16.5371 21.9966 16.8027 21.9831C17.5471 21.948 17.9794 21.89 18.4573 21.7664C19.1066 21.5999 19.7117 21.2935 20.2304 20.8688C20.7491 20.444 21.1688 19.9111 21.4603 19.3073C21.7589 18.6913 21.9103 18.0921 21.9789 17.2227C21.9938 17.0332 22 14.011 22 10.9928C22 7.97415 21.9932 4.95753 21.9784 4.76797C21.909 3.88451 21.7576 3.29046 21.4493 2.66256C21.1964 2.14857 20.9156 1.76472 20.5078 1.37224C19.7803 0.67698 18.8904 0.253868 17.8298 0.10087C17.316 0.0265715 17.2137 0.00456962 14.5846 0H11.0047Z" fill="url(#paint0_radial_2002_18)"/>
<path d="M11.0047 0C6.41275 0 5.06979 0.00473886 4.80874 0.0264022C3.86639 0.104763 3.28001 0.253191 2.64118 0.571371C2.14886 0.815931 1.76058 1.09942 1.37739 1.4968C0.679509 2.22151 0.256553 3.11309 0.103443 4.17291C0.0290032 4.68741 0.00734792 4.79234 0.00294919 7.42038C0.00125736 8.2964 0.00294919 9.44929 0.00294919 10.9957C0.00294919 15.5856 0.00802465 16.9277 0.0300183 17.1884C0.10615 18.1057 0.249955 18.6828 0.554483 19.3141C1.13647 20.5225 2.248 21.4296 3.55747 21.7681C4.01087 21.8849 4.51165 21.9492 5.15455 21.9797C5.42693 21.9915 8.20321 22 10.9812 22C13.7592 22 16.5371 21.9966 16.8027 21.9831C17.5471 21.948 17.9794 21.89 18.4573 21.7664C19.1066 21.5999 19.7117 21.2935 20.2304 20.8688C20.7491 20.444 21.1688 19.9111 21.4603 19.3073C21.7589 18.6913 21.9103 18.0921 21.9789 17.2227C21.9938 17.0332 22 14.011 22 10.9928C22 7.97415 21.9932 4.95753 21.9784 4.76797C21.909 3.88451 21.7576 3.29046 21.4493 2.66256C21.1964 2.14857 20.9156 1.76472 20.5078 1.37224C19.7803 0.67698 18.8904 0.253868 17.8298 0.10087C17.316 0.0265715 17.2137 0.00456962 14.5846 0H11.0047Z" fill="url(#paint1_radial_2002_18)"/>
<path d="M10.9999 2.87683C8.79446 2.87683 8.51767 2.88648 7.65146 2.92591C6.78694 2.96552 6.19683 3.10243 5.68049 3.30333C5.14638 3.51082 4.69331 3.78839 4.24193 4.2401C3.79022 4.69165 3.51276 5.14488 3.30466 5.67902C3.10334 6.19573 2.9663 6.78622 2.92739 7.65073C2.88881 8.51726 2.87866 8.79432 2.87866 11.0006C2.87866 13.2069 2.88847 13.4829 2.92773 14.3495C2.96748 15.2143 3.10435 15.8046 3.305 16.3212C3.51259 16.8555 3.79005 17.3087 4.24159 17.7602C4.6928 18.2121 5.14587 18.4904 5.67964 18.6979C6.19632 18.8988 6.7866 19.0357 7.65095 19.0753C8.51717 19.1147 8.79378 19.1244 10.9991 19.1244C13.2047 19.1244 13.4806 19.1147 14.3468 19.0753C15.2114 19.0357 15.8022 18.8988 16.3188 18.6979C16.8528 18.4904 17.3052 18.2121 17.7564 17.7602C18.2081 17.3087 18.4855 16.8555 18.6936 16.3213C18.8933 15.8046 19.0303 15.2141 19.0709 14.3496C19.1098 13.4831 19.12 13.2069 19.12 11.0006C19.12 8.79432 19.1098 8.51743 19.0709 7.6509C19.0303 6.78605 18.8933 6.19573 18.6936 5.67919C18.4855 5.14488 18.2081 4.69165 17.7564 4.2401C17.3047 3.78822 16.8529 3.51065 16.3183 3.30333C15.8006 3.10243 15.2102 2.96552 14.3457 2.92591C13.4794 2.88648 13.2037 2.87683 10.9975 2.87683H10.9999ZM10.2714 4.3408C10.4876 4.34046 10.7289 4.3408 10.9999 4.3408C13.1682 4.3408 13.4251 4.34859 14.2814 4.38751C15.0731 4.42373 15.5029 4.55608 15.7891 4.66728C16.1681 4.81452 16.4383 4.99053 16.7223 5.27487C17.0066 5.5592 17.1825 5.82999 17.33 6.2091C17.4412 6.49512 17.5737 6.925 17.6097 7.71707C17.6486 8.57345 17.6571 8.8307 17.6571 10.9987C17.6571 13.1668 17.6486 13.424 17.6097 14.2804C17.5735 15.0725 17.4412 15.5023 17.33 15.7884C17.1828 16.1675 17.0066 16.4374 16.7223 16.7216C16.4381 17.0059 16.1683 17.1819 15.7891 17.3292C15.5032 17.4409 15.0731 17.5729 14.2814 17.6091C13.4253 17.648 13.1682 17.6565 10.9999 17.6565C8.83151 17.6565 8.57452 17.648 7.71846 17.6091C6.92668 17.5726 6.49696 17.4402 6.21054 17.329C5.83157 17.1818 5.56088 17.0058 5.27665 16.7214C4.99242 16.4371 4.81648 16.167 4.66895 15.7877C4.5578 15.5017 4.42533 15.0718 4.38929 14.2797C4.35038 13.4233 4.3426 13.1661 4.3426 10.9967C4.3426 8.82732 4.35038 8.57142 4.38929 7.71504C4.4255 6.92297 4.5578 6.49309 4.66895 6.20673C4.81614 5.82762 4.99242 5.55683 5.27665 5.2725C5.56088 4.98816 5.83157 4.81215 6.21054 4.66457C6.49679 4.55287 6.92668 4.42085 7.71846 4.38447C8.4676 4.35062 8.75791 4.34046 10.2714 4.33877V4.3408ZM15.3347 5.68968C15.142 5.68968 14.9535 5.74687 14.7933 5.854C14.633 5.96113 14.5081 6.1134 14.4344 6.29155C14.3606 6.46971 14.3413 6.66573 14.379 6.85485C14.4166 7.04396 14.5094 7.21766 14.6458 7.35398C14.7821 7.4903 14.9557 7.58312 15.1448 7.6207C15.3338 7.65828 15.5298 7.63892 15.7079 7.56509C15.8859 7.49125 16.0381 7.36625 16.1451 7.20589C16.2522 7.04553 16.3093 6.85702 16.3092 6.6642C16.3092 6.126 15.8727 5.68968 15.3347 5.68968ZM10.9999 6.8287C8.69684 6.8287 6.82957 8.69666 6.82957 11.0006C6.82957 13.3045 8.69684 15.1716 10.9999 15.1716C13.303 15.1716 15.1697 13.3045 15.1697 11.0006C15.1697 8.69666 13.303 6.8287 10.9999 6.8287ZM10.9999 8.29267C12.4948 8.29267 13.7068 9.50498 13.7068 11.0006C13.7068 12.496 12.4948 13.7085 10.9999 13.7085C9.50485 13.7085 8.293 12.496 8.293 11.0006C8.293 9.50498 9.50485 8.29267 10.9999 8.29267Z" fill="white"/>
<defs>
<radialGradient id="paint0_radial_2002_18" cx="0" cy="0" r="1" gradientUnits="userSpaceOnUse" gradientTransform="translate(5.8454 23.6945) rotate(-90) scale(21.8036 20.2771)">
<stop stop-color="#FFDD55"/>
<stop offset="0.1" stop-color="#FFDD55"/>
<stop offset="0.5" stop-color="#FF543E"/>
<stop offset="1" stop-color="#C837AB"/>
</radialGradient>
<radialGradient id="paint1_radial_2002_18" cx="0" cy="0" r="1" gradientUnits="userSpaceOnUse" gradientTransform="translate(-3.68255 1.58484) rotate(78.6817) scale(9.74627 40.1709)">
<stop stop-color="#3771C8"/>
<stop offset="0.128" stop-color="#3771C8"/>
<stop offset="1" stop-color="#6600FF" stop-opacity="0"/>
</radialGradient>
</defs>
</svg>
