<svg width="10" height="14" viewBox="0 0 10 14" fill="none" xmlns="http://www.w3.org/2000/svg">
<path d="M4.83331 0C2.34751 0 0.333313 1.95159 0.333313 4.36898C0.333313 8.54884 4.83331 14 4.83331 14C4.83331 14 9.33331 8.54797 9.33331 4.36898C9.33331 1.95247 7.31911 0 4.83331 0ZM4.83331 6.78637C4.18884 6.78637 3.57076 6.53731 3.11504 6.09397C2.65933 5.65064 2.40331 5.04935 2.40331 4.42239C2.40331 3.79542 2.65933 3.19414 3.11504 2.7508C3.57076 2.30747 4.18884 2.05841 4.83331 2.05841C5.47779 2.05841 6.09587 2.30747 6.55158 2.7508C7.0073 3.19414 7.26331 3.79542 7.26331 4.42239C7.26331 5.04935 7.0073 5.65064 6.55158 6.09397C6.09587 6.53731 5.47779 6.78637 4.83331 6.78637Z" fill="white"/>
</svg>
