<svg width="26" height="26" viewBox="0 0 26 26" fill="none" xmlns="http://www.w3.org/2000/svg">
<g id="newpage">
<g id="arrow">
<path id="Vector" fill-rule="evenodd" clip-rule="evenodd" d="M25.7071 0.292893C26.0976 0.683417 26.0976 1.31658 25.7071 1.70711L15.7071 11.7071C15.3166 12.0976 14.6834 12.0976 14.2929 11.7071C13.9024 11.3166 13.9024 10.6834 14.2929 10.2929L24.2929 0.292893C24.6834 -0.097631 25.3166 -0.097631 25.7071 0.292893Z" fill="white"/>
<path id="Vector_2" fill-rule="evenodd" clip-rule="evenodd" d="M17.3333 1C17.3333 0.447715 17.781 0 18.3333 0H24.9999C25.5522 0 25.9999 0.447715 25.9999 1V7.66667C25.9999 8.21895 25.5522 8.66667 24.9999 8.66667C24.4476 8.66667 23.9999 8.21895 23.9999 7.66667V2H18.3333C17.781 2 17.3333 1.55228 17.3333 1Z" fill="white"/>
</g>
<path id="frame" fill-rule="evenodd" clip-rule="evenodd" d="M3.66667 2C2.74619 2 2 2.74619 2 3.66667V22.3333C2 23.2538 2.74618 24 3.66667 24H22.3333C23.2538 24 24 23.2538 24 22.3333V15.6667C24 15.1144 24.4477 14.6667 25 14.6667C25.5523 14.6667 26 15.1144 26 15.6667V22.3333C26 24.3584 24.3584 26 22.3333 26H3.66667C1.64163 26 0 24.3584 0 22.3333V3.66667C0 1.64162 1.64162 0 3.66667 0H10.3333C10.8856 0 11.3333 0.447715 11.3333 1C11.3333 1.55228 10.8856 2 10.3333 2H3.66667Z" fill="white"/>
</g>
</svg>
