<svg width="23" height="24" viewBox="0 0 23 24" fill="none" xmlns="http://www.w3.org/2000/svg">
<path d="M18.5919 14.7361C17.8194 14.5699 17.2083 14.9286 16.6672 15.2418C16.1131 15.5645 15.0594 16.4193 14.4555 16.2005C11.3632 14.9274 8.45495 12.2208 7.196 9.11623C6.97411 8.49937 7.82488 7.439 8.14525 6.87833C8.45614 6.33559 8.80736 5.71873 8.64718 4.94049C8.50241 4.24115 6.63 1.8586 5.96789 1.20707C5.53123 0.776704 5.0839 0.540003 4.62469 0.501749C2.89823 0.42763 0.970044 2.73128 0.63187 3.28239C-0.215343 4.45752 -0.210597 6.02119 0.646109 7.91718C2.71075 13.0098 10.5196 20.6955 15.6313 22.8377C16.5747 23.2788 17.4373 23.5 18.2121 23.5C18.9704 23.5 19.6455 23.2884 20.2258 22.8688C20.6636 22.6166 23.0617 20.5926 22.9988 18.8198C22.9608 18.3679 22.7247 17.916 22.2999 17.4785C21.6532 16.8102 19.286 14.8819 18.5919 14.7361Z" fill="#ED7000"/>
</svg>
