<svg width="18" height="18" viewBox="0 0 18 18" fill="none" xmlns="http://www.w3.org/2000/svg">
<g clip-path="url(#clip0_3_996)">
<path d="M17.5432 14.2473L15.5723 12.9333L13.8203 11.7655C13.4822 11.5405 13.0278 11.6143 12.7781 11.9347L11.694 13.3284C11.4611 13.6308 11.0422 13.7177 10.7083 13.5328C9.97265 13.1236 9.10277 12.7383 7.18342 10.8165C5.26406 8.8947 4.87632 8.02728 4.46713 7.29166C4.28223 6.95771 4.36914 6.53879 4.67157 6.30594L6.06527 5.22182C6.38565 4.97224 6.45943 4.51784 6.23447 4.17968L5.10254 2.48161L3.75266 0.456775C3.5229 0.112126 3.06298 0.00865531 2.70777 0.221674L1.15099 1.15562C0.730261 1.4035 0.420994 1.80377 0.287246 2.27346C-0.138479 3.82562 -0.224311 7.24965 5.26312 12.7371C10.7506 18.2245 14.1743 18.1384 15.7264 17.7127C16.1961 17.5789 16.5964 17.2697 16.8443 16.8489L17.7782 15.2922C17.9913 14.9369 17.8878 14.477 17.5432 14.2473Z" fill="white"/>
<path d="M10.2259 2.86961C13.1023 2.8728 15.4333 5.20381 15.4365 8.08027C15.4365 8.24954 15.5738 8.3868 15.7431 8.3868C15.9123 8.3868 16.0496 8.24958 16.0496 8.08027C16.046 4.86542 13.4408 2.26013 10.2259 2.25659C10.0566 2.25659 9.91937 2.39381 9.91937 2.56312C9.91934 2.73235 10.0566 2.86961 10.2259 2.86961Z" fill="white"/>
<path d="M10.2258 4.70869C12.087 4.71088 13.5952 6.21912 13.5974 8.08028C13.5974 8.24955 13.7346 8.38681 13.904 8.38681C14.0732 8.38681 14.2105 8.24959 14.2105 8.08028C14.2079 5.88069 12.4255 4.09818 10.2258 4.09564C10.0566 4.09564 9.91931 4.23286 9.91931 4.40217C9.91931 4.57147 10.0565 4.70869 10.2258 4.70869Z" fill="white"/>
<path d="M10.2259 6.54777C11.0719 6.54877 11.7574 7.23432 11.7584 8.08032C11.7584 8.24959 11.8956 8.38684 12.0649 8.38684C12.2342 8.38684 12.3715 8.24962 12.3715 8.08032C12.3701 6.89592 11.4103 5.93611 10.2259 5.93475C10.0566 5.93475 9.91937 6.07197 9.91937 6.24128C9.91934 6.41055 10.0566 6.54777 10.2259 6.54777Z" fill="white"/>
</g>
<defs>
<clipPath id="clip0_3_996">
<rect width="17.7778" height="17.7778" fill="white" transform="translate(0.111084 0.111084)"/>
</clipPath>
</defs>
</svg>
