<svg width="15" height="15" viewBox="0 0 15 15" fill="none" xmlns="http://www.w3.org/2000/svg">
<path d="M11.6501 9.16544C11.1799 9.0643 10.8079 9.2826 10.4786 9.47325C10.1413 9.66972 9.49992 10.19 9.13229 10.0568C7.25007 9.28187 5.47981 7.63442 4.71349 5.74466C4.57842 5.36918 5.09628 4.72374 5.29129 4.38246C5.48053 4.0521 5.69432 3.67662 5.59681 3.20291C5.5087 2.77722 4.36897 1.32697 3.96594 0.93039C3.70015 0.668429 3.42786 0.52435 3.14834 0.501064C2.09745 0.455949 0.923775 1.85817 0.71793 2.19363C0.202234 2.90893 0.205123 3.86072 0.726597 5.01481C1.98333 8.11469 6.73654 12.7929 9.84805 14.0969C10.4222 14.3654 10.9473 14.5 11.419 14.5C11.8805 14.5 12.2915 14.3712 12.6446 14.1158C12.9112 13.9623 14.3709 12.7303 14.3326 11.6512C14.3095 11.3761 14.1657 11.101 13.9072 10.8347C13.5135 10.428 12.0726 9.25422 11.6501 9.16544Z" fill="white"/>
</svg>
