<svg width="22" height="22" viewBox="0 0 22 22" fill="none" xmlns="http://www.w3.org/2000/svg">
<path d="M0.490572 10.9053C0.490021 12.7466 0.976304 14.5445 1.90105 16.1293L0.4021 21.5442L6.00301 20.0912C7.54612 20.9233 9.28349 21.3624 11.0517 21.363H11.0564C16.8791 21.363 21.619 16.6751 21.6214 10.9134C21.6226 8.12133 20.5245 5.496 18.5296 3.52088C16.5351 1.54576 13.8823 0.457466 11.056 0.456219C5.23257 0.456219 0.492933 5.14366 0.490572 10.9053Z" fill="url(#paint0_linear_2002_5)"/>
<path d="M0.113381 10.9016C0.112672 12.8093 0.616508 14.6716 1.57416 16.3132L0.0214844 21.9221L5.82331 20.417C7.42179 21.2794 9.22154 21.734 11.0531 21.7347H11.0579C17.0896 21.7347 21.9996 16.8783 22.0022 10.9104C22.0032 8.0179 20.8658 5.2983 18.7996 3.25231C16.7331 1.2064 13.9853 0.0791759 11.0579 0.0778522C5.02517 0.0778522 0.115821 4.93346 0.113381 10.9016ZM3.5684 16.0305L3.35183 15.6902C2.44121 14.2577 1.96048 12.6022 1.96126 10.9023C1.96319 5.94178 6.04366 1.90614 11.0613 1.90614C13.4912 1.90712 15.7748 2.84414 17.4924 4.54464C19.2099 6.24502 20.155 8.50555 20.1543 10.9096C20.1522 15.8703 16.0715 19.9066 11.0579 19.9066H11.0543C9.42178 19.9057 7.82078 19.4721 6.42443 18.6522L6.09211 18.4574L2.64921 19.3504L3.5684 16.0305Z" fill="url(#paint1_linear_2002_5)"/>
<path fill-rule="evenodd" clip-rule="evenodd" d="M8.32238 6.37681C8.11753 5.9263 7.9019 5.91723 7.70701 5.90933C7.54762 5.90259 7.36513 5.90302 7.18295 5.90302C7.00065 5.90302 6.70434 5.97077 6.4538 6.2415C6.2031 6.51223 5.49658 7.16668 5.49658 8.49779C5.49658 9.82905 6.47659 11.1152 6.61319 11.2959C6.74991 11.4763 8.50503 14.2951 11.2845 15.3796C13.5945 16.2808 14.0646 16.1016 14.566 16.0565C15.0674 16.0114 16.1839 15.4021 16.4118 14.7704C16.6397 14.1387 16.6397 13.5973 16.5714 13.4841C16.503 13.3713 16.3207 13.3037 16.0472 13.1684C15.7737 13.0331 14.4293 12.3785 14.1786 12.2883C13.9279 12.1981 13.7455 12.153 13.5632 12.4239C13.3809 12.6945 12.8572 13.3037 12.6975 13.4841C12.538 13.6649 12.3785 13.6875 12.105 13.5522C11.8315 13.4165 10.9508 13.1311 9.90595 12.2094C9.09301 11.4924 8.54423 10.6068 8.3846 10.3359C8.22509 10.0653 8.36756 9.91876 8.50472 9.78388C8.62751 9.66267 8.77824 9.4681 8.91497 9.31009C9.05141 9.15212 9.09703 9.03936 9.18817 8.85897C9.27932 8.6783 9.23375 8.52029 9.16539 8.38503C9.09703 8.24972 8.56556 6.91172 8.32238 6.37681" fill="white"/>
<defs>
<linearGradient id="paint0_linear_2002_5" x1="11.0117" y1="21.5442" x2="11.0117" y2="0.456199" gradientUnits="userSpaceOnUse">
<stop stop-color="#20B038"/>
<stop offset="1" stop-color="#60D66A"/>
</linearGradient>
<linearGradient id="paint1_linear_2002_5" x1="11.0119" y1="21.9221" x2="11.0119" y2="0.0778645" gradientUnits="userSpaceOnUse">
<stop stop-color="#F9F9F9"/>
<stop offset="1" stop-color="white"/>
</linearGradient>
</defs>
</svg>
